<svg width="83" height="32" viewBox="0 0 83 32" fill="none" xmlns="http://www.w3.org/2000/svg">
<g clip-path="url(#clip0_0_88)">
<path d="M23.6559 24.6492L24.6045 23.7007V21.2392H27.9348V19.3422H24.6045V16.949H27.9348V15.0519H24.6045V12.6587H27.9348V10.7617H24.6045V8.3002L23.6559 7.35166H21.1945V5.19279L19.2974 4.09722V7.35072H16.9042V2.7152L16.6671 2.57861H15.2443L15.0071 2.7152V7.35072H12.614V4.09722L10.7169 5.19279V7.35166H8.25542L7.30688 8.3002V10.7617H3.97656V12.6587H7.30688V15.0519H3.97656V16.949H7.30688V19.3422H3.97656V21.2392H7.30688V23.7007L8.25542 24.6492H10.7169V26.8072L12.614 27.9027V24.6492H15.0071V29.2847L15.2443 29.4213H16.6671L16.9042 29.2847V24.6492H19.2974V27.9027L21.1945 26.8072V24.6492H23.6559ZM9.20396 22.7521V9.24779H22.7074V22.7512L9.20396 22.7521ZM18.7871 10.7398H21.1774L13.1205 21.2591H10.7302L18.7871 10.7398Z" fill="#FFBA00"/>
</g>
<path d="M34.9824 20.2518V15.3787L36.7181 13.6306H40.0548L41.049 14.4879V10H43.2734V21.9999H41.1838V20.7056L39.8863 21.9999H36.7181L34.9824 20.2518ZM39.6854 20.1173L41.0504 18.7222V16.5371L39.9045 15.5118H37.8486L37.2082 16.1673V19.4632L37.8486 20.1187L39.6854 20.1173Z" fill="#FFBA00"/>
<path d="M45.1289 20.2856V15.3775L46.8646 13.6294H51.5999L53.3525 15.3775V18.5543H47.3533V19.6314L47.8926 20.1861H50.6394L51.1449 19.6651V19.228H53.3357V20.3192L51.6673 22.0001H46.8309L45.1289 20.2856ZM51.1267 17.0093V16.0344L50.5537 15.4461H47.9249L47.3519 16.0344V17.0093H51.1267Z" fill="#FFBA00"/>
<path d="M58.3394 10.2354H60.429L64.743 21.9999H62.4175L61.457 19.396H57.3115L56.3509 21.9999H54.0254L58.3394 10.2354ZM60.9528 17.5121L59.3856 13.0424H59.3519L57.8353 17.5121H60.9528Z" fill="#FFBA00"/>
<path d="M65.9219 10.2354H73.3197L75.1229 12.0507V16.1674L73.3029 18.0009H68.2137V21.9999H65.9219V10.2354ZM72.2763 16.0833L72.8662 15.495V12.7384L72.2763 12.1487H68.2151V16.0833H72.2763Z" fill="#FFBA00"/>
<path d="M76.8926 10.2354H79.1844V21.9999H76.8926V10.2354Z" fill="#FFBA00"/>
<defs>
<clipPath id="clip0_0_88">
<rect width="23.9582" height="26.8427" fill="white" transform="translate(3.97656 2.57861)"/>
</clipPath>
</defs>
</svg>
